<?xml version="1.0" encoding="UTF-8"?>
<!DOCTYPE svg PUBLIC "-//W3C//DTD SVG 1.1//EN" "http://www.w3.org/Graphics/SVG/1.1/DTD/svg11.dtd">
<!-- Creator: CorelDRAW 2018 (64 Bit Versão de avaliação) -->
<svg xmlns="http://www.w3.org/2000/svg" xml:space="preserve" width="17.018mm" height="17.018mm" version="1.1" style="shape-rendering:geometricPrecision; text-rendering:geometricPrecision; image-rendering:optimizeQuality; fill-rule:evenodd; clip-rule:evenodd"
viewBox="0 0 1701.8 1701.8"
 xmlns:xlink="http://www.w3.org/1999/xlink">
 <defs>
  <style type="text/css">
   <![CDATA[
    .str0 {stroke:#26B99A;stroke-width:20;stroke-miterlimit:22.9256}
    .fil2 {fill:#FEFEFE}
    .fil0 {fill:#26B99A}
    .fil1 {fill:#434C6D}
   ]]>
  </style>
 </defs>
 <g id="Camada_x0020_1">
  <metadata id="CorelCorpID_0Corel-Layer"/>
  <g id="_1706361819584">
   <rect class="fil0 str0" x="4.24" y="4.22" width="1693.33" height="1693.33" rx="117.59" ry="127"/>
   <rect class="fil1 str0" x="88.9" y="88.89" width="1524.01" height="1524" rx="117.6" ry="127.01"/>
   <path id="rubik_x0020__x0028_1_x0029_.svg" class="fil2" d="M304.5 1162.26c20.35,12.21 475.21,285.31 498.04,299.01 29.74,17.86 66.94,17.89 96.73,0 13.1,-7.87 483.75,-290.45 498.05,-299.03 28.1,-16.88 45.56,-47.73 45.57,-80.51 0,-30.57 0,-150.42 0,-169.57 0,-10.09 -8.19,-18.28 -18.28,-18.28 -10.1,0 -18.28,8.19 -18.28,18.28l0 19.63 -154.68 92.88 0 -139.78 154.68 -92.88 0 34.87c0,10.09 8.18,18.27 18.28,18.27 10.09,0 18.28,-8.18 18.28,-18.27 0,-24.4 0,-187.5 0,-206.75 -0.01,-32.92 -17.32,-63.55 -45.58,-80.52 -35.64,-21.4 -191.62,-115.04 -216.47,-129.97 -8.65,-5.19 -19.88,-2.39 -25.08,6.27 -5.19,8.65 -2.39,19.88 6.26,25.07l35.85 21.52 -155.73 93.51c-95.87,-57.56 -58.09,-34.88 -155.74,-93.51 106.86,-64.16 73.62,-44.2 155.73,-93.5l39.64 23.81c8.65,5.18 19.87,2.38 25.08,-6.27 5.2,-8.65 2.39,-19.88 -6.26,-25.08 -106.29,-63.82 41.76,25.07 -201.33,-120.88 -29.83,-17.92 -66.9,-17.91 -96.72,0 -15.1,9.07 -498.04,299.02 -498.04,299.02 -28.31,17 -45.59,47.66 -45.59,80.54l0 461.58c0,32.8 17.47,63.65 45.59,80.54l0 0zm182.2 -437.84c119.58,71.79 103.15,61.92 154.69,92.87l0 139.77 -154.69 -92.86 0 -139.78zm728.4 139.78l-154.69 92.87 0 -139.78 154.69 -92.87 0 139.78zm-191.24 -24.97l0 139.78 -154.68 92.88 0 -139.78c16.01,-9.62 130.08,-78.11 154.68,-92.88zm-191.24 92.88l0 139.78 -154.68 -92.88 0 -139.78c15.84,9.51 139.77,83.92 154.68,92.88zm-154.68 89.53l154.68 92.88 0 139.78 -154.68 -92.88 0 -139.78zm191.24 92.88l154.68 -92.88 0 139.78 -154.68 92.87 0 -139.77zm-382.48 -207.69l154.69 92.87 0 139.78 -154.69 -92.87 0 -139.78zm728.4 139.78l-154.69 92.87 0 -139.78 154.69 -92.87 0 139.78zm-208.46 -239.66l-155.74 93.49 -155.74 -93.49 155.74 -93.51c20.03,12.03 134.11,80.52 155.74,93.51zm-191.25 -114.82l-155.73 93.51c-15.05,-9.05 -139.93,-84.02 -155.73,-93.51l155.73 -93.5 155.73 93.5zm-365.23 150.12l-154.69 -92.88 0 -129.23c0,-3.36 0.3,-6.71 0.88,-10.01l153.81 92.34 0 139.78zm801.48 0l0 -139.78 153.81 -92.34c0.58,3.3 0.88,6.64 0.88,10l0 129.24 -154.69 92.88zm-209.5 -56.62c-20.04,-12.02 -134.12,-80.52 -155.73,-93.51 21.87,-13.13 135.57,-81.39 155.73,-93.49l155.73 93.49 -155.73 93.51zm-35.5 -208.32c-21.49,12.9 -134.3,80.63 -155.74,93.5l-155.74 -93.5c21.31,-12.79 134.53,-80.77 155.74,-93.5 66.43,39.88 76.43,45.89 155.74,93.5zm-346.98 -208.32l155.73 93.51c-21.31,12.79 -134.52,80.76 -155.73,93.5 -22.36,-13.43 -142.24,-85.41 -155.73,-93.5l155.73 -93.51zm-209.5 515.9l0 139.77 -154.69 -92.87 0 -139.78 154.69 92.88zm-154.7 196.83l0 -107.3 154.7 92.87 0 139.78 -126.85 -76.15c-17.17,-10.31 -27.85,-29.17 -27.85,-49.2zm191.24 7.52l154.69 92.87 0 139.77 -154.69 -92.86 0 -139.78zm191.24 254.59l0 -139.78 154.68 92.88 0 138.21c-3.91,-1.32 -7.69,-3.06 -11.27,-5.2l-143.41 -86.11zm202.51 86.11c-3.57,2.14 -7.36,3.88 -11.27,5.19l0 -138.2 154.68 -92.88 0 139.78 -143.41 86.11zm179.96 -247.83l154.69 -92.87 0 139.78 -154.69 92.86 0 -139.77zm345.93 -100.39c-0.01,20.02 -10.67,38.88 -27.83,49.19l-126.86 76.16 0 -139.78 154.68 -92.87 0 107.3 0.01 0zm-18.42 -503.7l-154.55 92.79c-47.69,-28.64 -24.6,-14.77 -155.73,-93.5l155.73 -93.49 145.12 87.12c3.39,2.03 6.55,4.41 9.43,7.08l0 0zm-566.56 -306.1c18.22,-10.95 40.86,-10.95 59.09,0l126.19 75.76c-72.95,43.79 -14.75,8.84 -155.74,93.5l-155.74 -93.5 126.2 -75.76zm-498.06 299.02c0.72,-0.44 111.7,-67.06 145.13,-87.12l155.73 93.49c-129.87,77.98 -107.54,64.57 -155.73,93.5l-154.55 -92.79c2.88,-2.67 6.04,-5.05 9.42,-7.08l0 0zm0 0z"/>
  </g>
 </g>
</svg>
