<?xml version="1.0" encoding="UTF-8"?>
<!DOCTYPE svg PUBLIC "-//W3C//DTD SVG 1.1//EN" "http://www.w3.org/Graphics/SVG/1.1/DTD/svg11.dtd">
<!-- Creator: CorelDRAW 2018 (64 Bit Versão de avaliação) -->
<svg xmlns="http://www.w3.org/2000/svg" xml:space="preserve" width="17.018mm" height="17.018mm" version="1.1" style="shape-rendering:geometricPrecision; text-rendering:geometricPrecision; image-rendering:optimizeQuality; fill-rule:evenodd; clip-rule:evenodd"
viewBox="0 0 1701.8 1701.8"
 xmlns:xlink="http://www.w3.org/1999/xlink">
 <defs>
  <style type="text/css">
   <![CDATA[
    .str0 {stroke:#26B99A;stroke-width:20;stroke-miterlimit:22.9256}
    .fil2 {fill:#FEFEFE}
    .fil0 {fill:#26B99A}
    .fil1 {fill:#434C6D}
   ]]>
  </style>
 </defs>
 <g id="Camada_x0020_1">
  <metadata id="CorelCorpID_0Corel-Layer"/>
  <g id="_1740961201392">
   <rect class="fil0 str0" x="4.24" y="4.23" width="1693.33" height="1693.33" rx="117.59" ry="127"/>
   <rect class="fil1 str0" x="88.9" y="88.9" width="1524.01" height="1524" rx="117.6" ry="127.01"/>
   <path class="fil2" d="M1408.98 514.45c-0.13,-0.45 -0.38,-0.86 -0.52,-1.32 -0.44,-1.28 -0.92,-2.52 -1.6,-3.68 -0.33,-0.58 -0.78,-1.07 -1.18,-1.64 -0.66,-0.93 -1.34,-1.84 -2.15,-2.65 -0.53,-0.54 -1.13,-0.97 -1.71,-1.45 -0.56,-0.45 -1.03,-0.97 -1.64,-1.36 -0.33,-0.21 -0.72,-0.31 -1.05,-0.5 -0.31,-0.16 -0.54,-0.43 -0.86,-0.58l-538.1 -269.05c-0.19,-0.08 -0.39,-0.04 -0.58,-0.14 -2.67,-1.25 -5.57,-2.06 -8.69,-2.06 -3.12,0 -6.02,0.81 -8.67,2.05 -0.19,0.09 -0.39,0.04 -0.58,0.15l-538.11 269.04c-0.3,0.17 -0.53,0.42 -0.85,0.58 -0.35,0.19 -0.72,0.29 -1.06,0.5 -0.62,0.39 -1.07,0.93 -1.63,1.36 -0.6,0.48 -1.18,0.91 -1.72,1.43 -0.81,0.81 -1.49,1.71 -2.15,2.65 -0.39,0.56 -0.85,1.06 -1.17,1.64 -0.69,1.16 -1.16,2.42 -1.6,3.7 -0.14,0.45 -0.39,0.85 -0.52,1.32 -0.47,1.73 -0.74,3.51 -0.74,5.33l0 662.27c0,0.13 0.06,0.25 0.06,0.38 0,0.42 0.14,0.81 0.16,1.2 0.16,2.12 0.67,4.14 1.43,6.05 0.14,0.33 0.08,0.71 0.24,1.03 0.17,0.37 0.45,0.64 0.67,1 0.52,0.95 1.1,1.82 1.75,2.69 0.54,0.73 1.08,1.43 1.7,2.05 0.71,0.71 1.47,1.32 2.28,1.93 0.74,0.57 1.49,1.13 2.29,1.59 0.31,0.16 0.54,0.43 0.85,0.58l538.11 269.05c0.31,0.14 0.64,0.08 0.95,0.23 2.66,1.19 5.45,1.98 8.31,1.98 2.86,0 5.65,-0.79 8.3,-1.97 0.3,-0.15 0.66,-0.09 0.95,-0.23l538.11 -269.05c7.01,-3.5 11.44,-10.66 11.44,-18.5l0 -662.28c0,-1.82 -0.25,-3.6 -0.72,-5.32zm-1039.8 641.59c-4.79,-10.37 -17.07,-14.91 -27.47,-10.13l-8.22 3.79 0 -597.58 496.71 229.25 0 636.24 -469.94 -234.98c9.39,-5.2 13.49,-16.69 8.92,-26.59zm481.72 -863.93c7.31,0 13.41,-3.99 17.1,-9.7l473.24 236.62 -469.64 216.75 0 -9.05c0,-11.43 -9.27,-20.7 -20.7,-20.7 -11.43,0 -20.7,9.27 -20.7,20.7l0 9.05 -469.64 -216.75 473.24 -236.62c3.69,5.71 9.79,9.7 17.1,9.7zm20.7 673.93l33.86 15.63c2.81,1.3 5.75,1.9 8.65,1.9 7.82,0 15.32,-4.47 18.81,-12.05 4.79,-10.37 0.25,-22.68 -10.12,-27.47l-37.59 -17.34c-4.45,-2.05 -9.19,-2.09 -13.61,-0.97l0 -144.37 496.7 -229.25 0 597.58 -32.1 -14.82c-10.36,-4.78 -22.68,-0.27 -27.46,10.12 -4.8,10.37 -0.27,22.67 10.12,27.47l22.38 10.32 -469.64 234.82 0 -451.57z"/>
   <path class="fil2" d="M651.06 1046.63c2.91,0 5.86,-0.59 8.65,-1.9l37.59 -17.34c10.37,-4.79 14.92,-17.1 10.12,-27.47 -4.78,-10.37 -17.09,-14.9 -27.46,-10.12l-37.59 17.34c-10.37,4.79 -14.92,17.1 -10.12,27.47 3.49,7.57 10.98,12.02 18.81,12.02z"/>
   <path class="fil2" d="M538.3 1098.67c2.9,0 5.86,-0.6 8.66,-1.91l37.59 -17.34c10.37,-4.78 14.9,-17.1 10.12,-27.47 -4.79,-10.36 -17.07,-14.92 -27.47,-10.12l-37.59 17.35c-10.36,4.78 -14.9,17.09 -10.12,27.46 3.5,7.57 10.99,12.03 18.81,12.03z"/>
   <path class="fil2" d="M425.55 1150.72c2.92,0 5.86,-0.63 8.65,-1.93l37.59 -17.35c10.37,-4.78 14.92,-17.09 10.12,-27.46 -4.78,-10.37 -17.14,-14.91 -27.46,-10.12l-37.59 17.34c-10.37,4.78 -14.92,17.1 -10.12,27.47 3.49,7.59 10.99,12.05 18.81,12.05z"/>
   <path class="fil2" d="M1148.28 1048.14l-37.58 -17.34c-10.37,-4.79 -22.69,-0.25 -27.47,10.12 -4.78,10.37 -0.25,22.68 10.12,27.47l37.59 17.34c2.81,1.3 5.76,1.9 8.65,1.9 7.82,0 15.32,-4.45 18.82,-12.02 4.78,-10.37 0.26,-22.67 -10.13,-27.47z"/>
   <path class="fil2" d="M1261.04 1100.19l-37.59 -17.34c-10.35,-4.8 -22.68,-0.27 -27.47,10.12 -4.8,10.37 -0.27,22.66 10.13,27.47l37.58 17.34c2.82,1.3 5.76,1.9 8.66,1.9 7.82,0 15.31,-4.45 18.79,-12.02 4.82,-10.37 0.27,-22.66 -10.1,-27.47z"/>
   <path class="fil2" d="M1035.53 996.14l-37.59 -17.35c-10.37,-4.82 -22.68,-0.27 -27.46,10.12 -4.8,10.37 -0.28,22.67 10.12,27.47l37.59 17.34c2.81,1.31 5.75,1.9 8.65,1.9 7.82,0 15.32,-4.45 18.79,-12.02 4.82,-10.39 0.29,-22.68 -10.1,-27.46z"/>
   <path class="fil2" d="M763.81 994.58c2.9,0 5.86,-0.59 8.66,-1.9l37.59 -17.34c10.36,-4.79 14.9,-17.1 10.12,-27.47 -4.8,-10.37 -17.07,-14.92 -27.47,-10.12l-37.59 17.34c-10.37,4.79 -14.9,17.1 -10.12,27.47 3.5,7.57 10.98,12.02 18.81,12.02z"/>
   <path class="fil2" d="M850.9 416.29c11.43,0 20.7,-9.27 20.7,-20.69l0 -41.4c0,-11.42 -9.27,-20.69 -20.7,-20.69 -11.43,0 -20.7,9.27 -20.7,20.69l0 41.4c0,11.42 9.27,20.69 20.7,20.69z"/>
   <path class="fil2" d="M850.9 540.46c11.43,0 20.7,-9.27 20.7,-20.69l0 -41.39c0,-11.43 -9.27,-20.7 -20.7,-20.7 -11.43,0 -20.7,9.27 -20.7,20.7l0 41.39c0,11.42 9.27,20.69 20.7,20.69z"/>
   <path class="fil2" d="M850.9 664.64c11.43,0 20.7,-9.27 20.7,-20.69l0 -41.39c0,-11.43 -9.27,-20.7 -20.7,-20.7 -11.43,0 -20.7,9.27 -20.7,20.7l0 41.39c0,11.42 9.27,20.69 20.7,20.69z"/>
  </g>
 </g>
</svg>
