<?xml version="1.0" encoding="UTF-8"?>
<!DOCTYPE svg PUBLIC "-//W3C//DTD SVG 1.1//EN" "http://www.w3.org/Graphics/SVG/1.1/DTD/svg11.dtd">
<!-- Creator: CorelDRAW 2018 (64 Bit Versão de avaliação) -->
<svg xmlns="http://www.w3.org/2000/svg" xml:space="preserve" width="17.018mm" height="17.018mm" version="1.1" style="shape-rendering:geometricPrecision; text-rendering:geometricPrecision; image-rendering:optimizeQuality; fill-rule:evenodd; clip-rule:evenodd"
viewBox="0 0 1701.8 1701.8"
 xmlns:xlink="http://www.w3.org/1999/xlink">
 <defs>
  <style type="text/css">
   <![CDATA[
    .str0 {stroke:#26B99A;stroke-width:20;stroke-miterlimit:22.9256}
    .fil1 {fill:#FEFEFE}
    .fil5 {fill:black}
    .fil0 {fill:#26B99A}
    .fil4 {fill:#6E6E6E}
    .fil3 {fill:#AAAAA0}
    .fil2 {fill:#E6E6E6}
   ]]>
  </style>
 </defs>
 <g id="Camada_x0020_1">
  <metadata id="CorelCorpID_0Corel-Layer"/>
  <rect class="fil0 str0" x="4.24" y="4.23" width="1693.33" height="1693.33" rx="117.59" ry="127"/>
  <rect class="fil1 str0" x="88.9" y="88.89" width="1524.01" height="1524" rx="117.6" ry="127.01"/>
  <g id="_2333573955968">
  </g>
  <g id="_2333573956544">
  </g>
  <g id="_2333573954880">
  </g>
  <g id="_2333573954592">
  </g>
  <g id="_2333573953504">
  </g>
  <g id="_2333573952224">
  </g>
  <g id="_2333573953216">
  </g>
  <g id="_2333573952320">
  </g>
  <g id="_2333573950784">
  </g>
  <g id="_2333573950496">
  </g>
  <g id="_2333573950080">
  </g>
  <g id="_2333573950432">
  </g>
  <g id="_2333573948736">
  </g>
  <g id="_2333573948032">
  </g>
  <g id="_2333573949472">
  </g>
  <g id="_2333573942528">
   <polygon class="fil2" points="1036.94,664.86 732.56,664.86 565.65,817.59 870.03,817.59 "/>
   <rect class="fil3" x="565.64" y="817.59" width="304.38" height="318.57"/>
   <polygon class="fil4" points="1036.94,983.42 870.02,1136.15 870.02,817.59 1036.94,664.86 "/>
   <polygon class="fil0" points="731.83,240.7 657.42,389.53 806.25,389.53 "/>
   <polygon class="fil0" points="1461.1,982.36 1312.27,907.95 1312.27,1056.78 "/>
   <polygon class="fil0" points="240.7,1461.1 398.56,1408.48 293.32,1303.24 "/>
   <path class="fil0" d="M1472.64 960.13c0,0 -148.81,-74.39 -148.89,-74.43 -16.25,-8.12 -35.92,4.1 -35.92,22.19l0 49.63 -225.82 -0.01c0,0 0,-292.59 0,-292.6 0,0 0,-24.99 -24.81,-24.99l-280.43 0 0 -225.78c0,0 49.47,0 49.64,0 18.07,0 30.25,-19.79 22.19,-35.91 0,0 -74.22,-148.42 -74.45,-148.88 -8.98,-17.97 -35.43,-17.92 -44.39,0 0,0 -74.32,148.62 -74.45,148.88 -7.86,15.71 3.63,35.91 22.19,35.91l49.64 0 0 240.33c0,0 -158.52,145.05 -158.67,145.21 -4.79,4.6 -7.58,11.13 -7.59,17.83l0 308.37 -194.99 194.95c0,0 -35.05,-35.04 -35.1,-35.08 -12.74,-12.74 -35.42,-7.3 -41.09,9.7 0,0 -52.54,157.59 -52.64,157.9 -6.09,18.27 12.91,37.55 31.39,31.39 0,0 157.73,-52.57 157.93,-52.64 17,-5.66 22.36,-28.42 9.7,-41.08l-35.1 -35.1 194.99 -194.95c0,0 294.23,0 294.27,0 6.12,-0.02 12.19,-2.38 16.7,-6.51l161.04 -147.33 239.85 0.01c0,0 0,49.56 0,49.63 0,18.06 19.79,30.25 35.92,22.19 0,0 148.71,-74.34 148.89,-74.43 17.69,-8.85 17.67,-35.57 0,-44.4zm-740.68 -664.19l34.3 68.57 -68.6 0 34.3 -68.57zm-452.12 1126.02l24.24 -72.74 48.5 48.5 -72.74 24.24zm462.48 -732.42l230.99 0 -112.75 103.15 -230.99 0.01 112.75 -103.16zm-151.82 152.78l254.89 0 0 269.02 -254.89 0.01 0 -269.03zm304.52 237.5l0 -251.38 117.36 -107.37 0 251.38 -117.36 107.37zm442.45 -63.21l0 -68.58 68.59 34.3 -68.59 34.28z"/>
   <path class="fil5" d="M900.71 341.03c0.5,0.67 0.74,1.74 0.74,3.23 0,0 0,62.37 0,62.52 0,7.66 10.13,10.17 16.14,10.17 6.27,0 16.12,-2.23 16.12,-10.17l0 -62.52c0,-1.16 0.33,-2.24 1,-3.23 0,0 51.12,-88.83 51.12,-88.83 3.09,-5.13 -2.31,-10.39 -6.33,-12.65 -7.52,-4.23 -18.98,-6.76 -23.95,2.48l-37.97 71.71c0,0 -37.53,-71.34 -37.72,-71.71 -4.78,-9.1 -16.8,-6.62 -24.19,-2.48 -4.79,2.69 -8.45,7 -6.33,12.65l51.37 88.83z"/>
   <path class="fil5" d="M250.52 1201.01c0,0 102.3,0 102.99,0 13.14,0 13.96,-28.29 0,-28.29l-71.46 0 73.45 -132.74c4.67,-7.76 6.29,-20.34 -5.95,-20.34 0,0 -93.72,0 -94.3,0 -7.29,0 -9.93,8.11 -9.93,14.14 0,5.96 2.53,14.14 9.92,14.14l62.78 0c0,0 -73.67,132.95 -73.7,133 -4.2,7.56 -6.02,20.09 6.2,20.09z"/>
   <path class="fil5" d="M1383.25 1254.1l41.45 -69.72c4.02,-6.7 1.9,-13.37 -4.34,-17.61 -8.02,-5.44 -19.51,-7.03 -24.94,2.47l-33.75 60.8c0,0 -33.63,-60.57 -33.75,-60.8 -5.24,-9.43 -16.73,-7.89 -24.7,-2.48 -6.24,4.25 -8.27,11.06 -4.34,17.62l41.44 69.72c0,0 -42.93,69.97 -42.93,69.97 -3.9,6.8 -0.98,13.09 5.09,17.24 6.44,4.41 17.93,8.42 22.95,-0.37l36.23 -63.77c0,0 36.22,63.31 36.48,63.76 4.92,8.59 16.37,4.87 22.84,0.37 5.91,-4.11 8.78,-10.58 5.21,-17.24l-42.94 -69.96z"/>
  </g>
  <g id="_2333573942272">
  </g>
  <g id="_2333573942144">
  </g>
  <g id="_2333573940320">
  </g>
  <g id="_2333573941088">
  </g>
  <g id="_2333573940608">
  </g>
  <g id="_2333573940160">
  </g>
  <g id="_2333573938176">
  </g>
  <g id="_2333573938592">
  </g>
  <g id="_2333573939072">
  </g>
  <g id="_2333573938432">
  </g>
  <g id="_2333573936224">
  </g>
  <g id="_2333573936800">
  </g>
  <g id="_2333573936128">
  </g>
  <g id="_2333573933568">
  </g>
  <g id="_2333573934496">
  </g>
 </g>
</svg>
