<?xml version="1.0" encoding="UTF-8"?>
<!DOCTYPE svg PUBLIC "-//W3C//DTD SVG 1.1//EN" "http://www.w3.org/Graphics/SVG/1.1/DTD/svg11.dtd">
<!-- Creator: CorelDRAW 2018 (64 Bit Versão de avaliação) -->
<svg xmlns="http://www.w3.org/2000/svg" xml:space="preserve" width="17.018mm" height="17.018mm" version="1.1" style="shape-rendering:geometricPrecision; text-rendering:geometricPrecision; image-rendering:optimizeQuality; fill-rule:evenodd; clip-rule:evenodd"
viewBox="0 0 1701.8 1701.8"
 xmlns:xlink="http://www.w3.org/1999/xlink">
 <defs>
  <style type="text/css">
   <![CDATA[
    .str0 {stroke:#26B99A;stroke-width:20;stroke-miterlimit:22.9256}
    .str1 {stroke:#26B99A;stroke-width:7.62;stroke-miterlimit:22.9256}
    .fil1 {fill:#FEFEFE}
    .fil0 {fill:#26B99A}
   ]]>
  </style>
 </defs>
 <g id="Camada_x0020_1">
  <metadata id="CorelCorpID_0Corel-Layer"/>
  <rect class="fil0 str0" x="4.24" y="4.23" width="1693.33" height="1693.33" rx="117.59" ry="127"/>
  <rect class="fil1 str0" x="88.9" y="88.89" width="1524.01" height="1524" rx="117.6" ry="127.01"/>
  <g id="information.svg">
   <g>
    <path class="fil0" d="M850.92 232.83c-341.38,0 -618.09,276.67 -618.09,618.04 0,341.45 276.71,618.1 618.09,618.1 341.34,0 618.05,-276.65 618.05,-618.1 0,-341.37 -276.72,-618.04 -618.05,-618.04zm-0.02 288.24c42.86,0 77.6,34.75 77.6,77.6 0,42.85 -34.76,77.6 -77.6,77.6 -42.84,0 -77.6,-34.75 -77.6,-77.6 -0.01,-42.85 34.74,-77.6 77.6,-77.6zm135.8 659.67l-271.6 0 0 -116.42 58.19 0 0 -232.82 -58.19 0 0 -116.4 213.42 0 0 116.41 0 232.82 58.2 -0.01 0 116.42 -0.02 0z"/>
    <polygon class="fil0 str1" points="1177.13,1375.63 1448.35,1448.29 1375.67,1177.08 "/>
   </g>
   <g>
   </g>
   <g>
   </g>
   <g>
   </g>
   <g>
   </g>
   <g>
   </g>
   <g>
   </g>
   <g>
   </g>
   <g>
   </g>
   <g>
   </g>
   <g>
   </g>
   <g>
   </g>
   <g>
   </g>
   <g>
   </g>
   <g>
   </g>
   <g>
   </g>
  </g>
 </g>
</svg>
