<?xml version="1.0" encoding="UTF-8"?>
<!DOCTYPE svg PUBLIC "-//W3C//DTD SVG 1.1//EN" "http://www.w3.org/Graphics/SVG/1.1/DTD/svg11.dtd">
<!-- Creator: CorelDRAW 2018 (64 Bit Versão de avaliação) -->
<svg xmlns="http://www.w3.org/2000/svg" xml:space="preserve" width="17.018mm" height="17.018mm" version="1.1" style="shape-rendering:geometricPrecision; text-rendering:geometricPrecision; image-rendering:optimizeQuality; fill-rule:evenodd; clip-rule:evenodd"
viewBox="0 0 1701.8 1701.8"
 xmlns:xlink="http://www.w3.org/1999/xlink">
 <defs>
  <style type="text/css">
   <![CDATA[
    .str0 {stroke:#26B99A;stroke-width:20;stroke-miterlimit:22.9256}
    .fil1 {fill:#FEFEFE}
    .fil3 {fill:#19705D}
    .fil0 {fill:#26B99A}
    .fil2 {fill:#26B99A}
    .fil4 {fill:#434C6D}
   ]]>
  </style>
 </defs>
 <g id="Camada_x0020_1">
  <metadata id="CorelCorpID_0Corel-Layer"/>
  <g id="_1740912733280">
   <rect class="fil0 str0" x="4.24" y="4.22" width="1693.33" height="1693.33" rx="117.59" ry="127"/>
   <rect class="fil1 str0" x="88.9" y="88.89" width="1524.01" height="1524" rx="117.6" ry="127.01"/>
   <path class="fil2" d="M476.77 695.03l-177.43 -106.52c-6.09,10.87 -9.46,23.28 -9.46,36.17l0 451.09c0,25.96 13.62,50.03 35.89,63.39 6.83,4.11 71.16,42.73 151,90.67l186.89 112.21c77.51,46.53 140.05,84.08 148.83,89.35 11.71,7.03 24.89,10.55 38.06,10.55l0 -165.96c0,-15.67 0,-340.9 0,-356.53 -16.42,-9.87 -357.39,-214.58 -373.78,-224.42l0 0zm0 0z"/>
   <path class="fil3" d="M379.46 1130.38l0 -151.7 0.01 0 0 -342.07 -80.13 -48.1c-6.09,10.87 -9.46,23.28 -9.46,36.17l0 451.09c0,25.96 13.63,50.03 35.89,63.39 4.36,2.63 32.2,19.34 72.52,43.54 -11.98,-14.51 -18.83,-32.92 -18.83,-52.32zm0 0z"/>
   <path class="fil2" d="M1375.34 561.29l-151.01 -90.67 -186.88 -112.21 -148.83 -89.35c-23.43,-14.06 -52.7,-14.06 -76.13,0l-148.83 89.35c-0.62,0.38 -337.27,202.5 -337.89,202.88 -11.21,6.73 -20.23,16.18 -26.43,27.22l177.43 106.52c16.39,9.84 357.36,214.56 373.78,224.42 16.44,-9.87 357.4,-214.58 373.78,-224.42l177.44 -106.52c-6.19,-11.04 -15.21,-20.49 -26.43,-27.22zm0 0z"/>
   <path class="fil3" d="M639.95 689.48l-150.87 -90.58c-16.12,-9.67 -16.53,-33.21 -0.48,-42.97 0.11,-0.07 0.22,-0.14 0.33,-0.21 0.64,-0.37 337.28,-202.48 337.9,-202.86l100.68 -60.45 -38.9 -23.35c-23.42,-14.06 -52.7,-14.06 -76.12,0l-148.83 89.35c-0.63,0.38 -337.27,202.49 -337.89,202.88 -11.22,6.73 -20.23,16.18 -26.43,27.22l177.43 106.52c16.39,9.84 357.36,214.56 373.78,224.42 4.98,-2.99 39.74,-23.86 86.22,-51.76 -106.18,-63.75 -285.07,-171.15 -296.82,-178.21l0 0zm0 0z"/>
   <path class="fil2" d="M1411.23 761.09l0 -136.42c-0.01,-12.89 -3.37,-25.29 -9.47,-36.16l-177.43 106.52c-16.39,9.85 -357.35,214.56 -373.78,224.42l0 356.53 0 165.96c13.18,0 26.35,-3.52 38.06,-10.55 6.35,-3.81 69.73,-41.86 148.83,-89.36l186.89 -112.2 151.02 -90.67c22.25,-13.37 35.87,-37.42 35.87,-63.39l0 -314.68 0.01 0zm0 0z"/>
   <path class="fil3" d="M850.55 1275.98l0 165.96c13.18,0 26.35,-3.52 38.07,-10.55 3.33,-2 22.42,-13.46 51.24,-30.76l0 -534.79c-48.03,28.82 -84.22,50.56 -89.31,53.61l0 356.53zm0 0z"/>
   <path class="fil4" d="M316.92 1155.17c19.89,11.94 464.41,278.83 486.72,292.22 29.06,17.45 65.42,17.48 94.53,0 12.8,-7.69 472.76,-283.85 486.73,-292.24 27.46,-16.49 44.52,-46.64 44.53,-78.68 0,-29.87 0,-147 0,-165.71 0,-9.86 -8,-17.86 -17.86,-17.86 -9.86,0 -17.86,8 -17.86,17.86l0 19.18 -151.17 90.77 0 -136.6 151.17 -90.77 0 34.07c0,9.86 8,17.86 17.86,17.86 9.86,0 17.86,-8 17.86,-17.86 0,-23.84 0,-183.24 0,-202.04 -0.01,-32.18 -16.93,-62.11 -44.54,-78.7 -34.83,-20.91 -187.26,-112.42 -211.55,-127.01 -8.45,-5.08 -19.43,-2.33 -24.51,6.12 -5.08,8.46 -2.33,19.43 6.12,24.51l35.03 21.03 -152.19 91.38c-93.68,-56.25 -56.77,-34.08 -152.2,-91.38 104.44,-62.7 71.95,-43.19 152.19,-91.38l38.74 23.27c8.46,5.07 19.42,2.33 24.51,-6.12 5.08,-8.46 2.34,-19.43 -6.12,-24.51 -103.87,-62.38 40.82,24.5 -196.75,-118.14 -29.15,-17.51 -65.37,-17.5 -94.52,0 -14.76,8.86 -486.72,292.22 -486.72,292.22 -27.67,16.62 -44.55,46.58 -44.55,78.71l0 451.09c0,32.06 17.07,62.21 44.55,78.71l0 0zm178.06 -427.89c116.86,70.16 100.8,60.52 151.17,90.77l0 136.59 -151.17 -90.75 0 -136.61zm711.84 136.6l-151.17 90.77 0 -136.6 151.17 -90.77 0 136.6zm-186.89 -24.39l0 136.6 -151.17 90.76 0 -136.6c15.65,-9.39 127.13,-76.33 151.17,-90.76zm-186.89 90.76l0 136.6 -151.17 -90.76 0 -136.6c15.48,9.29 136.59,82.01 151.17,90.76zm-151.17 87.5l151.17 90.77 0 136.6 -151.17 -90.77 0 -136.6zm186.89 90.77l151.17 -90.77 0 136.6 -151.17 90.76 0 -136.59zm-373.78 -202.97l151.17 90.76 0 136.6 -151.17 -90.76 0 -136.6zm711.84 136.6l-151.17 90.76 0 -136.6 151.17 -90.76 0 136.6zm-203.72 -234.21l-152.2 91.36 -152.2 -91.36 152.2 -91.38c19.58,11.75 131.06,78.69 152.2,91.38zm-186.9 -112.21l-152.19 91.38c-14.71,-8.84 -136.75,-82.1 -152.19,-91.38l152.19 -91.38 152.19 91.38zm-356.94 146.71l-151.17 -90.77 0 -126.3c0,-3.28 0.29,-6.55 0.86,-9.78l150.31 90.24 0 136.61zm783.28 0l0 -136.61 150.31 -90.24c0.57,3.23 0.86,6.49 0.86,9.77l0 126.31 -151.17 90.77zm-204.75 -55.34c-19.58,-11.75 -131.07,-78.69 -152.19,-91.38 21.37,-12.83 132.49,-79.55 152.19,-91.37l152.19 91.37 -152.19 91.38zm-34.69 -203.58c-21,12.6 -131.25,78.8 -152.2,91.38l-152.2 -91.38c20.83,-12.5 131.47,-78.94 152.2,-91.38 64.92,38.98 74.7,44.85 152.2,91.38zm-339.09 -203.59l152.19 91.38c-20.83,12.5 -131.47,78.94 -152.19,91.38 -21.86,-13.12 -139.01,-83.46 -152.19,-91.38l152.19 -91.38zm-204.75 504.18l0 136.59 -151.17 -90.76 0 -136.6 151.17 90.77zm-151.17 192.35l0 -104.85 151.17 90.75 0 136.6 -123.96 -74.41c-16.78,-10.08 -27.21,-28.51 -27.21,-48.09zm186.89 7.35l151.17 90.77 0 136.59 -151.17 -90.76 0 -136.6zm186.89 248.81l0 -136.61 151.17 90.77 0 135.07c-3.83,-1.29 -7.52,-2.99 -11.02,-5.08l-140.15 -84.15zm197.91 84.15c-3.49,2.09 -7.19,3.79 -11.02,5.08l0 -135.07 151.17 -90.77 0 136.61 -140.15 84.15zm175.87 -242.2l151.17 -90.76 0 136.6 -151.17 90.76 0 -136.6zm338.07 -98.11c-0.01,19.57 -10.43,38 -27.2,48.07l-123.98 74.43 0 -136.6 151.17 -90.75 0 104.85 0.01 0zm-18 -492.24l-151.04 90.68c-46.61,-27.99 -24.05,-14.44 -152.19,-91.38l152.19 -91.37 141.82 85.15c3.31,1.98 6.4,4.3 9.22,6.92l0 0zm-553.69 -299.15c17.81,-10.7 39.93,-10.7 57.75,0l123.32 74.04c-71.29,42.79 -14.41,8.64 -152.2,91.37l-152.2 -91.37 123.33 -74.04zm-486.74 292.22c0.71,-0.42 109.17,-65.53 141.83,-85.14l152.19 91.37c-126.92,76.2 -105.09,63.1 -152.19,91.38l-151.04 -90.69c2.82,-2.61 5.91,-4.93 9.21,-6.92l0 0zm0 0z"/>
  </g>
 </g>
</svg>
