<?xml version="1.0" encoding="UTF-8"?>
<!DOCTYPE svg PUBLIC "-//W3C//DTD SVG 1.1//EN" "http://www.w3.org/Graphics/SVG/1.1/DTD/svg11.dtd">
<!-- Creator: CorelDRAW 2018 (64 Bit Versão de avaliação) -->
<svg xmlns="http://www.w3.org/2000/svg" xml:space="preserve" width="17.018mm" height="17.018mm" version="1.1" style="shape-rendering:geometricPrecision; text-rendering:geometricPrecision; image-rendering:optimizeQuality; fill-rule:evenodd; clip-rule:evenodd"
viewBox="0 0 1701.8 1701.8"
 xmlns:xlink="http://www.w3.org/1999/xlink">
 <defs>
  <style type="text/css">
   <![CDATA[
    .str0 {stroke:#424A60;stroke-width:72.42;stroke-linecap:round;stroke-miterlimit:22.9256}
    .fil5 {fill:none}
    .fil0 {fill:#424A60}
    .fil3 {fill:#C7CAC7}
    .fil1 {fill:#E7ECED}
    .fil2 {fill:#EBBA16}
    .fil4 {fill:white}
   ]]>
  </style>
 </defs>
 <g id="Camada_x0020_1">
  <metadata id="CorelCorpID_0Corel-Layer"/>
  <g id="save.svg">
   <polygon class="fil0" points="1472.41,432.06 1472.41,1485.92 229.39,1485.92 229.39,215.88 1256.23,215.88 "/>
   <rect class="fil1" x="418.55" y="918.45" width="837.68" height="567.47"/>
   <rect class="fil2" x="418.55" y="918.45" width="837.68" height="325.26"/>
   <rect class="fil3" x="472.59" y="215.88" width="702.57" height="432.36"/>
   <g>
    <path class="fil4" d="M553.66 1053.56l189.15 0c14.95,0 27.03,-12.08 27.03,-27.02 0,-14.94 -12.08,-27.02 -27.03,-27.02l-189.15 0c-14.94,0 -27.02,12.09 -27.02,27.03 0,14.94 12.07,27.01 27.02,27.01z"/>
    <path class="fil4" d="M823.88 1107.61l-270.22 0c-14.94,0 -27.02,12.08 -27.02,27.02 0,14.94 12.08,27.03 27.02,27.03l270.22 0c14.94,0 27.02,-12.09 27.02,-27.03 0,-14.94 -12.08,-27.02 -27.02,-27.02z"/>
    <path class="fil4" d="M924.13 1115.45c-10,-10 -28.1,-10 -38.09,0 -5.14,5.1 -8.11,11.86 -8.11,19.18 0,7.3 2.95,14.06 7.84,19.19 5.09,4.86 11.85,7.84 19.18,7.84 7.3,0 14.05,-2.97 19.18,-7.84 4.87,-5.13 7.84,-12.16 7.84,-19.19 0,-7.03 -2.98,-14.08 -7.84,-19.18z"/>
   </g>
   <rect class="fil5 str0" x="958.99" y="323.97" width="108.09" height="216.18"/>
   <polygon class="fil1" points="877.92,648.24 472.59,648.24 472.59,215.88 661.74,215.88 "/>
   <g>
   </g>
   <g>
   </g>
   <g>
   </g>
   <g>
   </g>
   <g>
   </g>
   <g>
   </g>
   <g>
   </g>
   <g>
   </g>
   <g>
   </g>
   <g>
   </g>
   <g>
   </g>
   <g>
   </g>
   <g>
   </g>
   <g>
   </g>
   <g>
   </g>
  </g>
 </g>
</svg>
