<?xml version="1.0" encoding="UTF-8"?>
<!DOCTYPE svg PUBLIC "-//W3C//DTD SVG 1.1//EN" "http://www.w3.org/Graphics/SVG/1.1/DTD/svg11.dtd">
<!-- Creator: CorelDRAW 2018 (64 Bit Versão de avaliação) -->
<svg xmlns="http://www.w3.org/2000/svg" xml:space="preserve" width="17.018mm" height="17.018mm" version="1.1" style="shape-rendering:geometricPrecision; text-rendering:geometricPrecision; image-rendering:optimizeQuality; fill-rule:evenodd; clip-rule:evenodd"
viewBox="0 0 1701.8 1701.8"
 xmlns:xlink="http://www.w3.org/1999/xlink">
 <defs>
  <style type="text/css">
   <![CDATA[
    .str0 {stroke:#26B99A;stroke-width:20;stroke-miterlimit:22.9256}
    .fil1 {fill:#FEFEFE}
    .fil2 {fill:#1D856F}
    .fil0 {fill:#26B99A}
    .fil10 {fill:#434C6D}
    .fil11 {fill:#697786}
    .fil9 {fill:#A5B0B8}
    .fil12 {fill:#373435;fill-rule:nonzero}
    .fil4 {fill:url(#id0)}
    .fil8 {fill:url(#id1)}
    .fil5 {fill:url(#id2)}
    .fil7 {fill:url(#id3)}
    .fil3 {fill:url(#id4)}
    .fil6 {fill:url(#id5)}
   ]]>
  </style>
  <linearGradient id="id0" gradientUnits="userSpaceOnUse" x1="846.18" y1="1018.81" x2="846.18" y2="-324.57">
   <stop offset="0" style="stop-opacity:1; stop-color:#E2EDF2"/>
   <stop offset="1" style="stop-opacity:1; stop-color:#E6E6E6"/>
  </linearGradient>
  <linearGradient id="id1" gradientUnits="userSpaceOnUse" x1="969.15" y1="1186.74" x2="898.2" y2="1529.68">
   <stop offset="0" style="stop-opacity:0; stop-color:#9FC7E2"/>
   <stop offset="1" style="stop-opacity:1; stop-color:#4975AD"/>
  </linearGradient>
  <linearGradient id="id2" gradientUnits="userSpaceOnUse" xlink:href="#id1" x1="855.62" y1="997.53" x2="1328.66" y2="1340.47">
  </linearGradient>
  <linearGradient id="id3" gradientUnits="userSpaceOnUse" x1="1035.37" y1="562.35" x2="1153.63" y2="446.46">
   <stop offset="0" style="stop-opacity:1; stop-color:white"/>
   <stop offset="1" style="stop-opacity:1; stop-color:#E8EFEE"/>
  </linearGradient>
  <linearGradient id="id4" gradientUnits="userSpaceOnUse" x1="1129.98" y1="557.63" x2="1309.73" y2="377.87">
   <stop offset="0" style="stop-opacity:1; stop-color:#97AAAA"/>
   <stop offset="1" style="stop-opacity:1; stop-color:#E8EFEE"/>
  </linearGradient>
  <linearGradient id="id5" gradientUnits="userSpaceOnUse" xlink:href="#id1" x1="886.37" y1="572.33" x2="162.65" y2="1043.69">
  </linearGradient>
 </defs>
 <g id="Camada_x0020_1">
  <metadata id="CorelCorpID_0Corel-Layer"/>
  <g id="_1706360333760">
   <rect class="fil0 str0" x="4.24" y="4.23" width="1693.33" height="1693.33" rx="117.59" ry="127"/>
   <rect class="fil1 str0" x="88.9" y="88.9" width="1524.01" height="1524" rx="117.6" ry="127.01"/>
   <path class="fil2" d="M1358.9 347.06c0,-37.26 -30.2,-67.45 -67.45,-67.45l-881.1 0c-37.25,0 -67.45,30.2 -67.45,67.45l0 521.76 0 0 0 526.2c0,33.88 30.2,61.36 67.45,61.36l0 0 609 -0.01 141.69 0 130.41 0c37.25,0 67.45,-27.47 67.45,-61.36l0 -260.53 0 -0.01 0 -787.41 0 0z"/>
   <path class="fil2" d="M1289.22 369.04c-10.95,-14.14 -28.07,-23.24 -47.34,-23.24l-390.98 0 -390.99 0 0 0c-29.66,0 -59.86,26.8 -59.86,59.86l0 463.06 0 0 0 467c0,13.69 5.55,26.18 14.72,35.75l84.9 84.9 519.68 0 141.69 0 130.41 0c37.25,0 67.45,-27.47 67.45,-61.36l0 -260.53 0 -0.01 0 -695.76 -69.68 -69.67z"/>
   <path class="fil3" d="M1301.75 1330.31l0 -924.65c0,-33.05 -26.81,-59.86 -59.86,-59.86l-781.98 0c-33.05,0 -59.86,26.81 -59.86,59.86l0 924.65c0,33.04 26.81,59.86 59.86,59.86l781.98 0c33.05,0 59.86,-26.82 59.86,-59.86z"/>
   <path class="fil4" d="M1000.4 1390.17l-540.49 0c-33.06,0 -59.86,-26.8 -59.86,-59.86l0 -924.65c0,-33.06 26.8,-59.86 59.86,-59.86l781.98 0c33.06,0 59.86,26.8 59.86,59.86l0 698.84c0,9.16 -3.6,17.95 -10.03,24.48l-233.52 237.01c-15.25,15.47 -36.07,24.18 -57.8,24.18z"/>
   <path class="fil5" d="M850.9 1390.17l-397.15 0c-29.66,0 -53.7,-26.8 -53.7,-59.86l0 -115.74 0 -808.91c0,-33.06 24.04,-59.86 53.7,-59.86l397.15 0 0 1044.37z"/>
   <path class="fil6" d="M1301.75 868.72l0 467c0,30.08 -26.8,54.45 -59.86,54.45l-115.74 0 -666.24 0c-33.06,0 -59.86,-24.37 -59.86,-54.45l0 -467c0,-3.31 901.7,0 901.7,0z"/>
   <path class="fil7" d="M1298.69 1118.79c0,0 -1.77,5.01 -8.73,11.98 -2.59,2.58 -230.39,233.82 -230.39,233.82 -16.13,16.36 -38.14,25.58 -61.12,25.58l0 0 0 0c19.84,0 35.92,-16.08 35.92,-35.92l0 -175.6c0,-33.06 26.8,-59.86 59.86,-59.86l204.46 0 0 0z"/>
   <path class="fil8" d="M1301.75 541.3l-195.51 -195.51 -489.12 0.01 0 13.79c0,26.22 11.71,49.76 30.15,65.67l654.48 654.49 0 -538.45 0 0z"/>
   <path class="fil9" d="M997.89 446.38l-293.98 0c-47.86,0 -86.79,-38.93 -86.79,-86.79l0 -65.56 467.56 0 0 65.56c0,47.86 -38.93,86.79 -86.79,86.79zm-341.38 -112.95l0 26.16c0,26.12 21.27,47.39 47.4,47.39l293.98 0c26.13,0 47.4,-21.26 47.4,-47.39l0 -26.16 -388.78 0z"/>
   <path class="fil10" d="M1067.21 368.89l-432.63 0c-23.43,0 -42.43,-18.99 -42.43,-42.43l0.01 -38.6c0,-23.43 19,-42.43 42.43,-42.43l432.63 0c23.43,0 42.43,18.99 42.43,42.43l0 38.6c-0.01,23.43 -19.01,42.43 -42.44,42.43z"/>
   <g>
    <path class="fil11" d="M1018.38 771.33c4.21,8.16 8.06,16.63 11.43,25.16 1.29,3.26 4.42,5.26 7.73,5.26 1.02,0 2.05,-0.19 3.06,-0.59 4.27,-1.68 6.36,-6.52 4.67,-10.78 -3.57,-9.04 -7.65,-18.02 -12.12,-26.67 -2.1,-4.08 -7.12,-5.68 -11.19,-3.58 -4.08,2.1 -5.69,7.12 -3.58,11.2z"/>
    <path class="fil11" d="M829.9 609.44c-9.51,-1.95 -19.25,-3.45 -28.95,-4.45 -4.56,-0.48 -8.65,2.85 -9.12,7.42 -0.47,4.56 2.84,8.65 7.41,9.12 9.16,0.94 18.35,2.35 27.33,4.2 0.56,0.11 1.13,0.17 1.68,0.17 3.86,0 7.33,-2.71 8.13,-6.65 0.91,-4.5 -1.98,-8.89 -6.48,-9.81z"/>
    <path class="fil11" d="M1038.67 822.67c2.51,8.82 4.6,17.88 6.22,26.94 0.72,4.02 4.22,6.85 8.17,6.85 0.48,0 0.97,-0.04 1.47,-0.13 4.52,-0.8 7.52,-5.12 6.72,-9.64 -1.72,-9.6 -3.94,-19.21 -6.59,-28.56 -1.25,-4.41 -5.85,-6.98 -10.26,-5.72 -4.42,1.25 -6.98,5.85 -5.73,10.26z"/>
    <path class="fil11" d="M1048.39 877.04c0.57,7.26 0.86,14.65 0.86,21.97 0,1.9 -0.02,3.78 -0.06,5.68 -0.09,4.59 3.55,8.38 8.14,8.47 0.06,0 0.12,0 0.17,0 4.51,0 8.22,-3.61 8.31,-8.14 0.04,-2.01 0.05,-4 0.05,-6.01 0,-7.75 -0.3,-15.58 -0.9,-23.27 -0.36,-4.57 -4.36,-8 -8.93,-7.64 -4.57,0.36 -7.99,4.36 -7.64,8.94z"/>
    <path class="fil11" d="M1056.52 925.02c-4.55,-0.54 -8.69,2.72 -9.24,7.28 -1.08,9.13 -2.64,18.3 -4.62,27.26 -1,4.49 1.84,8.92 6.32,9.91 0.6,0.13 1.21,0.2 1.8,0.2 3.81,0 7.25,-2.64 8.1,-6.52 2.1,-9.5 3.75,-19.22 4.91,-28.9 0.54,-4.55 -2.71,-8.69 -7.27,-9.23z"/>
    <path class="fil11" d="M960.46 672.72c-3.52,-2.96 -8.75,-2.51 -11.71,1.01 -2.96,3.51 -2.51,8.75 1.01,11.71 7.03,5.92 13.85,12.25 20.26,18.83 1.63,1.67 3.79,2.51 5.95,2.51 2.09,0 4.19,-0.78 5.8,-2.36 3.29,-3.2 3.35,-8.47 0.15,-11.75 -6.79,-6.97 -14.01,-13.68 -21.46,-19.95z"/>
    <path class="fil11" d="M1011.49 751.2c1.55,0 3.11,-0.43 4.51,-1.34 3.85,-2.49 4.95,-7.64 2.45,-11.49 -5.29,-8.17 -11.06,-16.16 -17.13,-23.76 -2.87,-3.59 -8.09,-4.17 -11.69,-1.31 -3.58,2.87 -4.17,8.1 -1.3,11.69 5.74,7.17 11.18,14.72 16.18,22.43 1.59,2.45 4.26,3.78 6.98,3.78z"/>
    <path class="fil11" d="M937.13 654.99c-8.03,-5.51 -16.43,-10.67 -24.96,-15.35 -4.03,-2.2 -9.08,-0.73 -11.29,3.3 -2.21,4.03 -0.73,9.07 3.29,11.28 8.06,4.42 15.99,9.29 23.57,14.48 1.44,0.99 3.08,1.46 4.69,1.46 2.65,0 5.25,-1.26 6.87,-3.62 2.59,-3.78 1.63,-8.96 -2.17,-11.55z"/>
    <path class="fil11" d="M885.8 626.85c-8.97,-3.81 -18.23,-7.21 -27.52,-10.1 -4.39,-1.36 -9.05,1.08 -10.4,5.46 -1.37,4.38 1.08,9.04 5.46,10.4 8.77,2.74 17.5,5.94 25.96,9.54 1.06,0.45 2.16,0.66 3.24,0.66 3.23,0 6.31,-1.9 7.66,-5.06 1.79,-4.23 -0.18,-9.1 -4.4,-10.9z"/>
    <path class="fil11" d="M1089.74 1006.12c-1.55,-4.32 -6.3,-6.57 -10.63,-5.01l-36.56 13.13c3.16,-7.47 6.05,-15.11 8.58,-22.81 1.43,-4.36 -0.94,-9.05 -5.3,-10.48 -4.36,-1.43 -9.06,0.93 -10.49,5.3 -2.4,7.32 -5.16,14.59 -8.18,21.71l-11.23 -27.65c-1.73,-4.25 -6.56,-6.3 -10.83,-4.57 -4.25,1.73 -6.29,6.58 -4.57,10.83l18.43 45.35c1.3,3.22 4.4,5.19 7.7,5.19 0.94,0 1.87,-0.16 2.81,-0.49l55.26 -19.84c4.32,-1.58 6.56,-6.34 5.01,-10.66z"/>
   </g>
   <polygon class="fil12" points="522.61,808.45 615.69,667.87 531.28,538.84 594.85,538.84 647.94,619.12 701.03,538.84 764.73,538.84 680.13,667.94 773.01,808.45 707.62,808.45 647.88,717.14 588.07,808.45 "/>
   <polygon class="fil12" points="854.1,1304.24 854.1,1190.78 755.27,1034.64 819.09,1034.64 882.85,1141.39 944.91,1034.64 1007.54,1034.64 908.7,1191.16 908.7,1304.24 "/>
  </g>
 </g>
</svg>
