<?xml version="1.0" encoding="UTF-8"?>
<!DOCTYPE svg PUBLIC "-//W3C//DTD SVG 1.1//EN" "http://www.w3.org/Graphics/SVG/1.1/DTD/svg11.dtd">
<!-- Creator: CorelDRAW 2018 (64 Bit Versão de avaliação) -->
<svg xmlns="http://www.w3.org/2000/svg" xml:space="preserve" width="17.018mm" height="17.018mm" version="1.1" style="shape-rendering:geometricPrecision; text-rendering:geometricPrecision; image-rendering:optimizeQuality; fill-rule:evenodd; clip-rule:evenodd"
viewBox="0 0 1701.8 1701.8"
 xmlns:xlink="http://www.w3.org/1999/xlink">
 <defs>
  <style type="text/css">
   <![CDATA[
    .str0 {stroke:#26B99A;stroke-width:20;stroke-miterlimit:22.9256}
    .fil1 {fill:#FEFEFE}
    .fil2 {fill:#1D856F}
    .fil0 {fill:#26B99A}
    .fil10 {fill:#434C6D}
    .fil11 {fill:#697786}
    .fil9 {fill:#A5B0B8}
    .fil12 {fill:#373435;fill-rule:nonzero}
    .fil8 {fill:url(#id0)}
    .fil7 {fill:url(#id1)}
    .fil6 {fill:url(#id2)}
    .fil3 {fill:url(#id3)}
    .fil5 {fill:url(#id4)}
    .fil4 {fill:url(#id5)}
   ]]>
  </style>
  <linearGradient id="id0" gradientUnits="userSpaceOnUse" x1="967.18" y1="1157.14" x2="897.41" y2="1494.37">
   <stop offset="0" style="stop-opacity:0; stop-color:#9FC7E2"/>
   <stop offset="1" style="stop-opacity:1; stop-color:#4975AD"/>
  </linearGradient>
  <linearGradient id="id1" gradientUnits="userSpaceOnUse" x1="1032.3" y1="543.17" x2="1148.58" y2="429.21">
   <stop offset="0" style="stop-opacity:1; stop-color:white"/>
   <stop offset="1" style="stop-opacity:1; stop-color:#E8EFEE"/>
  </linearGradient>
  <linearGradient id="id2" gradientUnits="userSpaceOnUse" xlink:href="#id0" x1="885.78" y1="552.98" x2="174.12" y2="1016.47">
  </linearGradient>
  <linearGradient id="id3" gradientUnits="userSpaceOnUse" x1="1125.32" y1="538.52" x2="1302.08" y2="361.77">
   <stop offset="0" style="stop-opacity:1; stop-color:#97AAAA"/>
   <stop offset="1" style="stop-opacity:1; stop-color:#E8EFEE"/>
  </linearGradient>
  <linearGradient id="id4" gradientUnits="userSpaceOnUse" xlink:href="#id0" x1="855.55" y1="971.09" x2="1320.69" y2="1308.31">
  </linearGradient>
  <linearGradient id="id5" gradientUnits="userSpaceOnUse" x1="846.25" y1="992.02" x2="846.25" y2="-328.98">
   <stop offset="0" style="stop-opacity:1; stop-color:#E2EDF2"/>
   <stop offset="1" style="stop-opacity:1; stop-color:#E6E6E6"/>
  </linearGradient>
 </defs>
 <g id="Camada_x0020_1">
  <metadata id="CorelCorpID_0Corel-Layer"/>
  <g id="_1740961211760">
   <rect class="fil0 str0" x="4.24" y="4.23" width="1693.33" height="1693.33" rx="117.59" ry="127"/>
   <rect class="fil1 str0" x="88.9" y="88.9" width="1524.01" height="1524" rx="117.6" ry="127.01"/>
   <g>
    <path class="fil2" d="M1350.43 331.46c0,-36.64 -29.69,-66.33 -66.32,-66.33l-866.42 0c-36.63,0 -66.32,29.7 -66.32,66.33l0 513.06 0 0 0 517.43c0,33.32 29.69,60.34 66.32,60.34l0 0 598.85 -0.01 139.33 0 128.24 0c36.63,0 66.32,-27.01 66.32,-60.33l0 -256.19 0 -0.01 0 -774.29 0 0z"/>
    <path class="fil2" d="M1281.92 353.07c-10.77,-13.9 -27.6,-22.85 -46.55,-22.85l-384.47 0 -384.47 0 0 0c-29.17,0 -58.87,26.36 -58.87,58.86l0 455.35 0 0 0 459.22c0,13.45 5.46,25.74 14.48,35.14l83.49 83.49 511.01 0 139.33 0 128.24 0c36.63,0 66.32,-27.01 66.32,-60.33l0 -256.19 0 -0.01 0 -684.17 -68.51 -68.51z"/>
    <path class="fil3" d="M1294.24 1298.32l0 -909.24c0,-32.49 -26.37,-58.86 -58.87,-58.86l-768.94 0c-32.5,0 -58.87,26.37 -58.87,58.86l0 909.24c0,32.5 26.37,58.87 58.87,58.87l768.94 0c32.5,0 58.87,-26.37 58.87,-58.87z"/>
    <path class="fil4" d="M997.91 1357.19l-531.48 0c-32.51,0 -58.87,-26.36 -58.87,-58.87l0 -909.24c0,-32.5 26.36,-58.86 58.87,-58.86l768.94 0c32.51,0 58.87,26.36 58.87,58.86l0 687.2c0,9 -3.55,17.65 -9.87,24.07l-229.62 233.06c-15,15.21 -35.47,23.78 -56.84,23.78z"/>
    <path class="fil5" d="M850.9 1357.19l-390.53 0c-29.17,0 -52.81,-26.36 -52.81,-58.87l0 -113.8 0 -795.44c0,-32.5 23.64,-58.86 52.81,-58.86l390.53 0 0 1026.97z"/>
    <path class="fil6" d="M1294.24 844.42l0 459.22c0,29.58 -26.36,53.55 -58.87,53.55l-113.8 0 -655.14 0c-32.51,0 -58.87,-23.97 -58.87,-53.55l0 -459.22c0,-3.25 886.68,0 886.68,0z"/>
    <path class="fil7" d="M1291.22 1090.33c0,0 -1.74,4.92 -8.58,11.77 -2.54,2.54 -226.54,229.93 -226.54,229.93 -15.87,16.09 -37.52,25.16 -60.11,25.16l0 0 0 0c19.51,0 35.32,-15.81 35.32,-35.32l0 -172.68c0,-32.5 26.36,-58.86 58.87,-58.86l201.04 0 0 0z"/>
    <path class="fil8" d="M1294.24 522.46l-192.25 -192.25 -480.98 0.01 0 13.56c0,25.78 11.52,48.93 29.66,64.58l643.57 643.58 0 -529.48 0 0z"/>
    <path class="fil9" d="M995.45 429.13l-289.1 0c-47.06,0 -85.34,-38.29 -85.34,-85.35l0 -64.47 459.78 0 0 64.47c0,47.06 -38.29,85.35 -85.34,85.35zm-335.7 -111.07l0 25.72c0,25.69 20.91,46.6 46.6,46.6l289.1 0c25.69,0 46.6,-20.9 46.6,-46.6l0 -25.72 -382.3 0z"/>
    <path class="fil10" d="M1063.6 352.93l-425.41 0c-23.04,0 -41.72,-18.68 -41.72,-41.72l0 -37.96c0,-23.04 18.69,-41.73 41.73,-41.73l425.41 0c23.04,0 41.72,18.68 41.72,41.73l0 37.96c0,23.04 -18.69,41.72 -41.73,41.72z"/>
    <g>
     <path class="fil11" d="M1015.59 748.65c4.14,8.03 7.92,16.36 11.24,24.75 1.26,3.21 4.34,5.17 7.6,5.17 1,0 2.02,-0.18 3,-0.58 4.2,-1.65 6.26,-6.41 4.6,-10.6 -3.51,-8.89 -7.52,-17.71 -11.91,-26.22 -2.07,-4.02 -7.01,-5.59 -11.01,-3.52 -4.01,2.06 -5.59,7 -3.52,11z"/>
     <path class="fil11" d="M830.25 589.46c-9.35,-1.91 -18.93,-3.38 -28.47,-4.37 -4.48,-0.47 -8.51,2.8 -8.97,7.29 -0.46,4.49 2.8,8.51 7.29,8.97 9.01,0.93 18.05,2.32 26.88,4.13 0.55,0.11 1.1,0.17 1.65,0.17 3.8,0 7.21,-2.67 8,-6.54 0.89,-4.42 -1.96,-8.74 -6.38,-9.65z"/>
     <path class="fil11" d="M1035.55 799.15c2.46,8.67 4.52,17.58 6.1,26.49 0.71,3.95 4.15,6.73 8.04,6.73 0.47,0 0.95,-0.04 1.44,-0.13 4.45,-0.79 7.4,-5.04 6.61,-9.48 -1.69,-9.44 -3.87,-18.88 -6.47,-28.08 -1.23,-4.34 -5.75,-6.86 -10.1,-5.62 -4.34,1.23 -6.86,5.75 -5.62,10.09z"/>
     <path class="fil11" d="M1045.1 852.6c0.56,7.15 0.84,14.42 0.84,21.61 0,1.87 -0.02,3.72 -0.05,5.58 -0.09,4.52 3.49,8.25 8,8.34 0.06,0 0.11,0 0.17,0 4.44,0 8.08,-3.56 8.17,-8.01 0.04,-1.97 0.05,-3.94 0.05,-5.91 0,-7.62 -0.3,-15.32 -0.89,-22.88 -0.35,-4.5 -4.29,-7.86 -8.78,-7.52 -4.49,0.36 -7.86,4.29 -7.51,8.79z"/>
     <path class="fil11" d="M1053.09 899.79c-4.47,-0.53 -8.54,2.67 -9.08,7.15 -1.07,8.98 -2.59,18.01 -4.55,26.82 -0.98,4.4 1.81,8.76 6.22,9.73 0.59,0.14 1.19,0.2 1.77,0.2 3.75,0 7.13,-2.6 7.97,-6.41 2.06,-9.34 3.68,-18.9 4.82,-28.41 0.54,-4.48 -2.66,-8.55 -7.15,-9.08z"/>
     <path class="fil11" d="M958.63 651.69c-3.46,-2.91 -8.6,-2.46 -11.51,0.99 -2.91,3.46 -2.47,8.61 0.99,11.52 6.92,5.82 13.62,12.05 19.93,18.51 1.6,1.65 3.72,2.47 5.85,2.47 2.05,0 4.11,-0.76 5.7,-2.32 3.23,-3.15 3.3,-8.32 0.15,-11.55 -6.68,-6.85 -13.78,-13.45 -21.11,-19.62z"/>
     <path class="fil11" d="M1008.81 728.87c1.52,0 3.06,-0.43 4.44,-1.32 3.79,-2.45 4.87,-7.52 2.41,-11.31 -5.21,-8.02 -10.88,-15.89 -16.85,-23.36 -2.82,-3.53 -7.95,-4.1 -11.49,-1.28 -3.52,2.82 -4.1,7.96 -1.28,11.49 5.64,7.05 10.99,14.48 15.91,22.05 1.56,2.42 4.19,3.73 6.86,3.73z"/>
     <path class="fil11" d="M935.7 634.25c-7.9,-5.41 -16.16,-10.49 -24.56,-15.08 -3.96,-2.17 -8.92,-0.72 -11.09,3.24 -2.17,3.96 -0.72,8.92 3.24,11.09 7.92,4.35 15.71,9.14 23.17,14.24 1.41,0.97 3.02,1.43 4.61,1.43 2.61,0 5.17,-1.24 6.75,-3.55 2.55,-3.73 1.61,-8.81 -2.12,-11.37z"/>
     <path class="fil11" d="M885.21 606.59c-8.81,-3.75 -17.92,-7.09 -27.05,-9.94 -4.32,-1.34 -8.9,1.06 -10.23,5.37 -1.35,4.31 1.06,8.9 5.37,10.23 8.62,2.69 17.21,5.84 25.53,9.38 1.04,0.44 2.12,0.65 3.19,0.65 3.17,0 6.2,-1.87 7.52,-4.97 1.77,-4.16 -0.17,-8.95 -4.33,-10.72z"/>
     <path class="fil11" d="M1085.76 979.54c-1.52,-4.25 -6.2,-6.46 -10.45,-4.93l-35.96 12.91c3.12,-7.35 5.96,-14.86 8.45,-22.43 1.4,-4.28 -0.93,-8.9 -5.22,-10.31 -4.28,-1.41 -8.9,0.92 -10.31,5.21 -2.36,7.2 -5.08,14.35 -8.05,21.35l-11.04 -27.18c-1.7,-4.19 -6.46,-6.2 -10.65,-4.49 -4.18,1.7 -6.19,6.46 -4.49,10.65l18.12 44.59c1.28,3.16 4.33,5.1 7.57,5.1 0.92,0 1.84,-0.16 2.76,-0.48l54.34 -19.51c4.25,-1.56 6.46,-6.24 4.93,-10.48z"/>
    </g>
    <polygon class="fil12" points="775.91,1294.91 775.91,1246.78 915.62,1074.6 791.83,1074.6 791.83,1029.8 985.85,1029.8 985.85,1071.27 840.71,1250.11 991.4,1250.11 991.4,1294.91 "/>
    <polygon class="fil12" points="624.35,785.16 624.35,673.58 527.16,520.05 589.92,520.05 652.62,625.02 713.65,520.05 775.23,520.05 678.04,673.95 678.04,785.16 "/>
   </g>
  </g>
 </g>
</svg>
