<?xml version="1.0" encoding="UTF-8"?>
<!DOCTYPE svg PUBLIC "-//W3C//DTD SVG 1.1//EN" "http://www.w3.org/Graphics/SVG/1.1/DTD/svg11.dtd">
<!-- Creator: CorelDRAW 2018 (64 Bit Versão de avaliação) -->
<svg xmlns="http://www.w3.org/2000/svg" xml:space="preserve" width="17.018mm" height="17.018mm" version="1.1" style="shape-rendering:geometricPrecision; text-rendering:geometricPrecision; image-rendering:optimizeQuality; fill-rule:evenodd; clip-rule:evenodd"
viewBox="0 0 1701.8 1701.8"
 xmlns:xlink="http://www.w3.org/1999/xlink">
 <defs>
  <style type="text/css">
   <![CDATA[
    .str0 {stroke:#26B99A;stroke-width:20;stroke-miterlimit:22.9256}
    .fil1 {fill:#FEFEFE}
    .fil2 {fill:#1D856F}
    .fil0 {fill:#26B99A}
    .fil10 {fill:#434C6D}
    .fil11 {fill:#697786}
    .fil9 {fill:#A5B0B8}
    .fil12 {fill:#373435;fill-rule:nonzero}
    .fil4 {fill:url(#id0)}
    .fil8 {fill:url(#id1)}
    .fil5 {fill:url(#id2)}
    .fil7 {fill:url(#id3)}
    .fil3 {fill:url(#id4)}
    .fil6 {fill:url(#id5)}
   ]]>
  </style>
  <linearGradient id="id0" gradientUnits="userSpaceOnUse" x1="846.25" y1="992.02" x2="846.25" y2="-329">
   <stop offset="0" style="stop-opacity:1; stop-color:#E2EDF2"/>
   <stop offset="1" style="stop-opacity:1; stop-color:#E6E6E6"/>
  </linearGradient>
  <linearGradient id="id1" gradientUnits="userSpaceOnUse" x1="967.18" y1="1157.16" x2="897.41" y2="1494.39">
   <stop offset="0" style="stop-opacity:0; stop-color:#9FC7E2"/>
   <stop offset="1" style="stop-opacity:1; stop-color:#4975AD"/>
  </linearGradient>
  <linearGradient id="id2" gradientUnits="userSpaceOnUse" xlink:href="#id1" x1="855.55" y1="971.09" x2="1320.7" y2="1308.32">
  </linearGradient>
  <linearGradient id="id3" gradientUnits="userSpaceOnUse" x1="1032.31" y1="543.18" x2="1148.6" y2="429.22">
   <stop offset="0" style="stop-opacity:1; stop-color:white"/>
   <stop offset="1" style="stop-opacity:1; stop-color:#E8EFEE"/>
  </linearGradient>
  <linearGradient id="id4" gradientUnits="userSpaceOnUse" x1="1125.33" y1="538.51" x2="1302.09" y2="361.76">
   <stop offset="0" style="stop-opacity:1; stop-color:#97AAAA"/>
   <stop offset="1" style="stop-opacity:1; stop-color:#E8EFEE"/>
  </linearGradient>
  <linearGradient id="id5" gradientUnits="userSpaceOnUse" xlink:href="#id1" x1="885.78" y1="552.98" x2="174.11" y2="1016.48">
  </linearGradient>
 </defs>
 <g id="Camada_x0020_1">
  <metadata id="CorelCorpID_0Corel-Layer"/>
  <g id="_1740962588416">
   <rect class="fil0 str0" x="4.24" y="4.23" width="1693.33" height="1693.33" rx="117.59" ry="127"/>
   <rect class="fil1 str0" x="88.9" y="88.9" width="1524.01" height="1524" rx="117.6" ry="127.01"/>
   <g>
    <path class="fil2" d="M1350.44 331.45c0,-36.64 -29.69,-66.33 -66.32,-66.33l-866.44 0c-36.63,0 -66.32,29.7 -66.32,66.33l0 513.07 0 0 0 517.44c0,33.33 29.69,60.34 66.32,60.34l0 0 598.86 -0.01 139.34 0 128.24 0c36.63,0 66.32,-27 66.32,-60.33l0 -256.2 0 0 0 -774.31 0 0z"/>
    <path class="fil2" d="M1281.93 353.06c-10.77,-13.9 -27.61,-22.85 -46.56,-22.85l-384.47 0 -384.48 0 0 0c-29.17,0 -58.87,26.36 -58.87,58.86l0 455.36 0 0 0 459.23c0,13.45 5.47,25.74 14.48,35.14l83.49 83.49 511.02 0 139.34 0 128.24 0c36.63,0 66.32,-27 66.32,-60.33l0 -256.2 0 0 0 -684.18 -68.51 -68.52z"/>
    <path class="fil3" d="M1294.25 1298.33l0 -909.26c0,-32.49 -26.37,-58.86 -58.87,-58.86l-768.96 0c-32.5,0 -58.87,26.37 -58.87,58.86l0 909.26c0,32.5 26.37,58.87 58.87,58.87l768.96 0c32.5,0 58.87,-26.37 58.87,-58.87z"/>
    <path class="fil4" d="M997.91 1357.2l-531.49 0c-32.51,0 -58.87,-26.36 -58.87,-58.87l0 -909.26c0,-32.5 26.36,-58.86 58.87,-58.86l768.96 0c32.51,0 58.87,26.36 58.87,58.86l0 687.21c0,9.01 -3.55,17.66 -9.87,24.07l-229.63 233.07c-15,15.21 -35.47,23.78 -56.84,23.78z"/>
    <path class="fil5" d="M850.9 1357.2l-390.54 0c-29.17,0 -52.81,-26.36 -52.81,-58.87l0 -113.81 0 -795.45c0,-32.5 23.64,-58.86 52.81,-58.86l390.54 0 0 1026.99z"/>
    <path class="fil6" d="M1294.25 844.42l0 459.23c0,29.58 -26.36,53.55 -58.87,53.55l-113.81 0 -655.15 0c-32.51,0 -58.87,-23.97 -58.87,-53.55l0 -459.23c0,-3.25 886.7,0 886.7,0z"/>
    <path class="fil7" d="M1291.23 1090.33c0,0 -1.74,4.93 -8.58,11.78 -2.54,2.54 -226.55,229.93 -226.55,229.93 -15.86,16.09 -37.51,25.16 -60.11,25.16l0 0 0 0c19.51,0 35.33,-15.81 35.33,-35.32l0 -172.68c0,-32.51 26.35,-58.87 58.86,-58.87l201.05 0 0 0z"/>
    <path class="fil8" d="M1294.25 522.46l-192.26 -192.26 -480.98 0.01 0 13.56c0,25.78 11.51,48.93 29.65,64.58l643.59 643.59 0 -529.48 0 0z"/>
    <path class="fil9" d="M995.45 429.12l-289.1 0c-47.06,0 -85.34,-38.29 -85.34,-85.35l0 -64.47 459.78 0 0 64.47c0,47.06 -38.29,85.35 -85.34,85.35zm-335.7 -111.07l0 25.72c0,25.69 20.91,46.6 46.6,46.6l289.1 0c25.69,0 46.6,-20.9 46.6,-46.6l0 -25.72 -382.3 0z"/>
    <path class="fil10" d="M1063.61 352.92l-425.42 0c-23.05,0 -41.73,-18.68 -41.73,-41.72l0.01 -37.96c0,-23.05 18.68,-41.73 41.72,-41.73l425.42 0c23.05,0 41.73,18.68 41.73,41.73l0 37.96c-0.01,23.04 -18.69,41.72 -41.73,41.72z"/>
    <g>
     <path class="fil11" d="M1015.59 748.65c4.15,8.03 7.92,16.36 11.24,24.75 1.27,3.21 4.35,5.17 7.61,5.17 1,0 2.01,-0.19 3,-0.58 4.2,-1.66 6.25,-6.41 4.6,-10.6 -3.52,-8.89 -7.53,-17.72 -11.92,-26.22 -2.07,-4.02 -7.01,-5.59 -11.01,-3.52 -4.01,2.06 -5.59,6.99 -3.52,11z"/>
     <path class="fil11" d="M830.25 589.46c-9.35,-1.92 -18.93,-3.39 -28.47,-4.37 -4.48,-0.48 -8.51,2.8 -8.97,7.29 -0.46,4.49 2.8,8.51 7.29,8.97 9.01,0.93 18.05,2.31 26.88,4.13 0.55,0.11 1.1,0.16 1.65,0.16 3.8,0 7.21,-2.66 8,-6.53 0.89,-4.42 -1.96,-8.74 -6.38,-9.65z"/>
     <path class="fil11" d="M1035.55 799.15c2.46,8.66 4.52,17.58 6.11,26.49 0.7,3.95 4.15,6.73 8.03,6.73 0.48,0 0.96,-0.04 1.45,-0.13 4.44,-0.79 7.39,-5.04 6.6,-9.48 -1.68,-9.44 -3.87,-18.88 -6.47,-28.08 -1.23,-4.34 -5.75,-6.86 -10.1,-5.62 -4.33,1.23 -6.85,5.75 -5.62,10.09z"/>
     <path class="fil11" d="M1045.11 852.6c0.55,7.15 0.84,14.42 0.84,21.61 0,1.87 -0.02,3.72 -0.06,5.58 -0.09,4.52 3.49,8.25 8.01,8.34 0.05,0 0.11,0 0.16,0 4.44,0 8.09,-3.56 8.17,-8.01 0.04,-1.97 0.06,-3.94 0.06,-5.91 0,-7.62 -0.31,-15.32 -0.89,-22.88 -0.35,-4.5 -4.29,-7.86 -8.78,-7.51 -4.5,0.35 -7.86,4.28 -7.51,8.78z"/>
     <path class="fil11" d="M1053.1 899.79c-4.48,-0.53 -8.55,2.68 -9.08,7.15 -1.08,8.98 -2.6,18.01 -4.55,26.82 -0.98,4.41 1.8,8.76 6.21,9.74 0.6,0.13 1.19,0.19 1.77,0.19 3.75,0 7.13,-2.59 7.97,-6.41 2.07,-9.34 3.69,-18.9 4.82,-28.41 0.54,-4.48 -2.66,-8.55 -7.14,-9.08z"/>
     <path class="fil11" d="M958.64 651.69c-3.47,-2.91 -8.61,-2.47 -11.52,0.99 -2.91,3.46 -2.46,8.61 0.99,11.52 6.92,5.82 13.63,12.05 19.93,18.51 1.6,1.65 3.72,2.47 5.85,2.47 2.06,0 4.11,-0.77 5.7,-2.32 3.24,-3.15 3.3,-8.33 0.15,-11.55 -6.68,-6.85 -13.78,-13.45 -21.1,-19.62z"/>
     <path class="fil11" d="M1008.81 728.87c1.53,0 3.07,-0.43 4.45,-1.32 3.78,-2.46 4.86,-7.52 2.4,-11.31 -5.2,-8.02 -10.88,-15.89 -16.85,-23.36 -2.82,-3.53 -7.95,-4.1 -11.49,-1.28 -3.52,2.82 -4.1,7.96 -1.28,11.49 5.64,7.05 11,14.47 15.91,22.05 1.57,2.42 4.19,3.73 6.86,3.73z"/>
     <path class="fil11" d="M935.7 634.25c-7.9,-5.41 -16.16,-10.49 -24.55,-15.09 -3.96,-2.17 -8.93,-0.72 -11.1,3.24 -2.17,3.96 -0.72,8.92 3.24,11.1 7.92,4.35 15.71,9.13 23.17,14.24 1.42,0.97 3.03,1.43 4.61,1.43 2.61,0 5.17,-1.24 6.76,-3.56 2.54,-3.72 1.6,-8.81 -2.13,-11.36z"/>
     <path class="fil11" d="M885.21 606.58c-8.81,-3.74 -17.92,-7.09 -27.05,-9.93 -4.32,-1.34 -8.9,1.06 -10.23,5.37 -1.35,4.31 1.06,8.89 5.37,10.23 8.62,2.69 17.21,5.84 25.53,9.38 1.04,0.44 2.12,0.65 3.19,0.65 3.17,0 6.2,-1.87 7.53,-4.98 1.76,-4.15 -0.18,-8.95 -4.34,-10.72z"/>
     <path class="fil11" d="M1085.77 979.54c-1.53,-4.25 -6.2,-6.46 -10.46,-4.93l-35.95 12.91c3.11,-7.34 5.95,-14.86 8.44,-22.42 1.41,-4.29 -0.92,-8.91 -5.21,-10.32 -4.29,-1.4 -8.91,0.93 -10.32,5.22 -2.36,7.2 -5.08,14.35 -8.04,21.35l-11.04 -27.19c-1.7,-4.18 -6.46,-6.2 -10.65,-4.49 -4.19,1.7 -6.2,6.46 -4.5,10.65l18.12 44.59c1.28,3.16 4.33,5.1 7.57,5.1 0.92,0 1.85,-0.15 2.76,-0.48l54.34 -19.51c4.26,-1.55 6.46,-6.23 4.94,-10.48z"/>
    </g>
    <polygon class="fil12" points="543.44,785.15 543.44,737.02 683.16,564.84 559.37,564.84 559.37,520.03 753.39,520.03 753.39,561.51 608.24,740.35 758.94,740.35 758.94,785.15 "/>
    <polygon class="fil12" points="760.54,1294.92 852.06,1156.68 769.06,1029.8 831.57,1029.8 883.78,1108.74 935.99,1029.8 998.62,1029.8 915.44,1156.74 1006.77,1294.92 942.47,1294.92 883.72,1205.13 824.91,1294.92 "/>
   </g>
  </g>
 </g>
</svg>
